PathFileType	4	(X/Y/Z)	s05c0001.trc
DataRate	CameraRate	NumFrames	NumMarkers	Units	OrigDataRate	OrigDataStartFrame	OrigNumFrames
200	200	4	49	mm	200	1000	2000
Frame#	Time	racr			lacr			c7			jug			rlel			rdr			llel			ldr			s2			lic			ric			lasi			rasi			rpsi			lpsi			rgt			lgt			rth1			rth2			rth3			rth4			rlfc			rmfc			rsh1			rsh2			rsh3			rsh4			rlmal			rmmal			rcal			rtoe			rmt5			rmt1			lth1			lth2			lth4			lth3			llfc			lmfc			lsh1			lsh2			lsh3			lsh4			llmal			lmmal			lcal			ltoe			lmt1			lmt5			
		X1	Y1	Z1	X2	Y2	Z2	X3	Y3	Z3	X4	Y4	Z4	X5	Y5	Z5	X6	Y6	Z6	X7	Y7	Z7	X8	Y8	Z8	X9	Y9	Z9	X10	Y10	Z10	X11	Y11	Z11	X12	Y12	Z12	X13	Y13	Z13	X14	Y14	Z14	X15	Y15	Z15	X16	Y16	Z16	X17	Y17	Z17	X18	Y18	Z18	X19	Y19	Z19	X20	Y20	Z20	X21	Y21	Z21	X22	Y22	Z22	X23	Y23	Z23	X24	Y24	Z24	X25	Y25	Z25	X26	Y26	Z26	X27	Y27	Z27	X28	Y28	Z28	X29	Y29	Z29	X30	Y30	Z30	X31	Y31	Z31	X32	Y32	Z32	X33	Y33	Z33	X34	Y34	Z34	X35	Y35	Z35	X36	Y36	Z36	X37	Y37	Z37	X38	Y38	Z38	X39	Y39	Z39	X40	Y40	Z40	X41	Y41	Z41	X42	Y42	Z42	X43	Y43	Z43	X44	Y44	Z44	X45	Y45	Z45	X46	Y46	Z46	X47	Y47	Z47	X48	Y48	Z48	X49	Y49	Z49	
1000	5.0000	270.215912	1527.804932	348.780975	258.287537	1534.975464	2.408409	204.443817	1571.165771	171.628479	347.453430	1483.784668	170.650696	237.666840	1281.445923	533.615173	306.979462	1136.868408	742.607422	204.557846	1292.223511	-193.565125	237.153580	1156.475830	-430.748535	179.236252	1035.749146	180.488129	320.622620	1095.229370	30.800095	323.472412	1076.206177	316.480011	373.021790	1028.914307	62.806297	380.126038	1019.985046	284.329437	202.936325	1068.257812	223.681870	200.376633	1072.242432	134.461578	274.086395	923.151184	334.364563	246.512466	953.826721	10.259859	277.156769	824.879028	350.548889	288.942017	735.905701	349.635468	254.355179	655.892334	337.866608	325.439209	732.161926	341.025604	256.698761	507.499207	312.206421	249.292175	506.724030	211.241104	203.247574	410.229675	339.888031	218.276077	322.700500	330.775726	190.288635	242.269058	323.578400	250.665359	323.081818	308.055054	187.219299	109.665703	305.722473	212.975342	124.608528	227.810242	136.846146	62.444637	249.226181	424.728699	80.964493	309.426941	317.348480	44.850071	355.989136	350.615784	47.175480	242.532394	263.435211	821.966797	-11.075232	285.465485	739.132507	-4.954658	321.493042	738.811951	7.238073	259.914307	652.414062	6.076645	247.343277	516.887878	38.795288	240.266113	509.217468	138.773682	196.112259	400.194702	12.768387	211.024139	314.120209	22.849831	179.395035	231.208679	27.147722	243.282715	313.866302	43.365143	183.276718	108.894539	41.864117	211.912155	127.599426	115.191299	136.950134	57.424423	94.073647	425.072906	79.335838	39.354996	351.278595	48.168564	106.039467	312.856049	38.215401	-5.446733	
1001	5.0050	270.203857	1527.800293	348.780396	258.259521	1534.978882	2.409260	204.484528	1571.151855	171.588486	347.430847	1483.775024	170.647217	237.657074	1281.516113	533.683777	306.998993	1136.870850	742.629822	204.529678	1292.216919	-193.556015	237.129593	1156.462280	-430.737518	179.234955	1035.745117	180.489929	320.610474	1095.214478	30.814039	323.468414	1076.211914	316.481598	373.028778	1028.915283	62.815456	380.121216	1020.005432	284.334015	202.939163	1068.254028	223.675217	200.360062	1072.238281	134.466309	274.084686	923.153198	334.380615	246.511093	953.827942	10.257004	277.145050	824.869080	350.573853	288.945831	735.916992	349.652374	254.334854	655.902466	337.875519	325.409424	732.166138	341.022675	256.695587	507.505920	312.213379	249.275284	506.724182	211.237885	203.236938	410.234528	339.892517	218.247757	322.687408	330.775696	190.296097	242.284103	323.584656	250.660187	323.075653	308.047485	187.209625	109.679733	305.718933	212.976913	124.604950	227.811249	136.853729	62.442955	249.220032	424.730286	80.960876	309.424133	317.334259	44.863365	356.006897	350.618469	47.179779	242.548538	263.446777	821.965698	-11.069230	285.475159	739.130005	-4.930550	321.488953	738.841003	7.195156	259.923096	652.411011	6.088406	247.350388	516.885559	38.807404	240.283234	509.210663	138.778214	196.117813	400.181671	12.775962	211.041138	314.230255	22.693350	179.389801	231.200653	27.157879	243.207779	313.759491	43.614014	183.279785	108.878716	41.867485	211.902008	127.602066	115.174072	136.947601	57.418606	94.078400	425.064148	79.343376	39.349403	351.282684	48.162556	106.046379	312.854034	38.219574	-5.449088	
1002	5.0100	270.182281	1527.805664	348.794678	258.263885	1534.979980	2.394517	204.428925	1571.151733	171.605225	347.407349	1483.766235	170.645386	237.701004	1281.444946	533.610229	307.007111	1136.874512	742.623413	204.497986	1292.204224	-193.560181	237.080597	1156.444214	-430.724823	179.224213	1035.742188	180.506271	320.609802	1095.225342	30.814590	323.445618	1076.210693	316.495728	373.023010	1028.918335	62.833408	380.088837	1020.001282	284.349518	202.919525	1068.248169	223.684372	200.366592	1072.227905	134.477051	274.061462	923.151978	334.394562	246.515610	953.820679	10.261687	277.152008	824.875488	350.570709	288.936737	735.917847	349.671539	254.342789	655.915649	337.893555	325.416656	732.167358	341.035522	256.679779	507.509125	312.218262	249.271164	506.707703	211.249573	203.235962	410.221344	339.889771	218.248871	322.677979	330.762115	190.288788	242.273087	323.601562	250.671356	323.074402	308.050049	187.213058	109.653610	305.719971	212.961884	124.607857	227.820038	136.841080	62.453960	249.223465	424.728821	80.975029	309.429810	317.324524	44.849499	355.999390	350.615326	47.176395	242.530914	263.441559	821.979370	-11.064157	285.485413	739.121521	-4.926194	321.497894	738.818237	7.278114	259.926880	652.404358	6.109093	247.359406	516.892761	38.812496	240.271622	509.205658	138.778946	196.124832	400.191925	12.781079	211.037643	314.118835	22.861208	179.393158	231.213364	27.144836	243.282486	313.854156	43.359383	183.291519	108.870491	41.863602	211.906128	127.601120	115.174065	136.957550	57.430645	94.082375	425.072845	79.344887	39.357002	351.267456	48.159664	106.041328	312.848297	38.226322	-5.463529	
1003	5.0150	270.159698	1527.805908	348.803925	258.238495	1534.976685	2.382754	204.409561	1571.137573	171.610092	347.399414	1483.780029	170.639908	237.670792	1281.514648	533.695984	307.026825	1136.868042	742.634521	204.476669	1292.210815	-193.545609	237.037216	1156.421631	-430.719910	179.226425	1035.743408	180.505829	320.612640	1095.215698	30.814909	323.431763	1076.211304	316.505371	373.035461	1028.919922	62.835239	380.097870	1019.999573	284.344299	202.909256	1068.244873	223.691406	200.352112	1072.227173	134.479568	274.068024	923.152161	334.404785	246.510452	953.815613	10.269360	277.144867	824.881165	350.597046	288.935364	735.915710	349.674652	254.339752	655.905273	337.886749	325.415100	732.167236	341.027435	256.617920	507.432495	312.193542	249.259827	506.723297	211.242294	203.235260	410.229004	339.891235	218.259460	322.672913	330.774139	190.290421	242.275070	323.598511	250.663284	323.068817	308.050537	187.211365	109.655052	305.729584	212.973694	124.610413	227.812012	136.839890	62.446026	249.217667	424.733276	80.965744	309.423065	317.315369	44.847160	355.996521	350.600830	47.163895	242.530869	263.444916	821.978821	-11.055187	285.481659	739.138367	-4.951602	321.504974	738.817688	7.273017	259.946686	652.416992	6.107216	247.344788	516.888794	38.812424	240.273758	509.209900	138.790009	196.132095	400.186462	12.774090	211.059113	314.233063	22.694704	179.385468	231.214401	27.141188	243.209198	313.748383	43.619503	183.275116	108.876823	41.848801	211.926163	127.565323	115.183678	136.952591	57.419765	94.065956	425.078979	79.328812	39.340755	351.263916	48.162998	106.039345	312.857727	38.224865	-5.463172	
